<svg width="436" height="103" viewBox="0 0 436 103" fill="none" xmlns="http://www.w3.org/2000/svg">
<path d="M372.802 3.99191C369.517 7.43317 368.991 9.08498 368.991 15.4169C368.991 22.1618 368.729 22.85 365.05 24.5018C361.502 26.2913 361.108 26.9795 361.108 33.1738C361.108 39.5057 361.371 39.9187 364.524 39.9187C367.809 39.9187 367.94 39.6434 367.415 32.3479C367.283 28.2184 367.415 24.7771 368.072 24.7771C368.597 24.7771 368.991 34.9633 368.991 47.4895C368.991 68.4123 369.254 70.4771 371.619 72.9548C373.064 74.469 374.247 76.5337 374.247 77.4973C374.247 80.3879 377.137 82.5903 380.816 82.5903C384.758 82.5903 387.386 80.2503 387.386 76.809C387.386 74.469 388.437 74.1937 398.817 74.6066C409.853 75.0196 410.248 75.1572 411.036 78.4608C412.35 84.5174 422.861 83.4162 422.861 77.222C422.861 75.9831 424.044 74.1937 425.489 73.2301C427.985 71.7159 428.117 70.0641 428.117 48.1777C428.117 35.2386 428.511 24.7771 429.168 24.7771C429.693 24.7771 429.825 28.2184 429.693 32.3479C429.168 39.6434 429.299 39.9187 432.584 39.9187C435.737 39.9187 436 39.5057 436 33.3115C436 27.5301 435.606 26.4289 432.058 24.3642C428.511 22.1618 428.117 21.1982 428.117 15.1416C428.117 1.10125 425.883 4.57764e-05 397.897 4.57764e-05H376.612L372.802 3.99191ZM426.146 33.7244V54.372L420.89 56.4367C413.664 59.1898 383.444 59.1898 376.218 56.4367L370.962 54.372L370.568 35.1009C370.437 24.6395 370.568 15.1416 370.831 14.178C371.356 12.6639 377.269 12.3886 398.817 12.6639L426.146 13.0768V33.7244ZM382.919 64.6958C385.284 65.6593 386.072 66.6229 385.152 67.5864C383.707 69.1006 375.561 66.6229 375.561 64.5581C375.561 62.9063 378.451 63.044 382.919 64.6958ZM421.547 64.6958C421.547 66.0723 416.16 68.8253 413.532 68.8253C411.43 68.8253 412.35 64.9711 414.715 64.2828C418.788 63.1816 421.547 63.3193 421.547 64.6958Z" fill="black"/>
<path d="M211.192 9.49822C209.09 11.7006 207.382 14.7289 207.382 16.1054C207.514 19.2714 212.112 30.1458 214.871 33.3118C218.156 37.0283 220.127 36.3401 223.675 29.8705C229.85 18.7208 229.718 11.15 223.149 7.57111C217.762 4.68045 215.528 4.95575 211.192 9.49822ZM222.755 11.563C225.908 14.4536 226.171 15.2795 225.12 18.7208C223.28 24.0892 217.631 26.1539 213.952 22.7127C210.404 19.4091 210.536 13.0771 214.214 10.4618C218.025 7.57111 218.419 7.70876 222.755 11.563Z" fill="black"/>
<path d="M3.07143 41.9834C-1.00164 46.1129 -1.00164 49.6918 2.94004 58.5014C6.75034 67.311 9.50952 69.7888 12.4001 67.311C15.4221 64.6957 20.809 52.8577 20.809 48.8659C20.809 43.9105 15.2907 38.5421 10.2979 38.5421C7.80146 38.5421 5.04228 39.7809 3.07143 41.9834ZM15.5534 44.0481C18.7068 47.3517 18.8382 49.2788 16.079 53.4083C11.349 60.4285 0.706421 54.5096 3.59699 46.3882C5.69922 40.7445 11.349 39.6433 15.5534 44.0481Z" fill="black"/>
<path d="M216.185 40.8822C214.74 42.2587 215.134 46.5258 216.711 47.6271C217.499 48.04 219.076 47.4894 220.258 46.3882C221.966 44.5987 221.966 43.7728 220.521 42.121C218.682 39.781 217.499 39.368 216.185 40.8822Z" fill="black"/>
<path d="M210.667 53.6838C210.141 54.6473 211.718 54.785 215.528 54.2344C223.018 52.9955 223.543 52.3072 216.842 52.3072C213.952 52.3072 211.061 52.9955 210.667 53.6838Z" fill="black"/>
<path d="M118.563 55.0605C115.278 56.437 111.468 61.5301 111.468 64.696C111.468 67.1737 116.986 79.4246 119.745 83.2788C121.454 85.6189 121.979 85.6189 123.95 83.9671C127.235 81.0764 132.49 69.5138 132.49 64.9713C132.49 58.3641 124.475 52.5828 118.563 55.0605ZM128.154 61.3924C130.125 64.696 130.125 65.3843 128.417 68.6879C124.738 75.7081 115.41 73.5057 115.41 65.6596C115.41 60.1536 117.38 57.8135 122.242 57.8135C124.738 57.8135 126.578 58.9147 128.154 61.3924Z" fill="black"/>
<path d="M232.215 56.5749C235.368 58.089 238.259 58.9149 238.653 58.502C239.441 57.6761 230.507 53.6842 228.142 53.8219C227.222 53.8219 229.062 55.0607 232.215 56.5749Z" fill="black"/>
<path d="M310.392 54.785C300.8 56.2991 300.8 71.4407 310.26 82.1774C313.545 86.0316 315.253 84.7928 319.852 75.4326C324.844 65.1088 323.793 57.8133 316.83 55.4732C314.727 54.785 311.837 54.5097 310.392 54.785ZM318.012 60.1533C322.479 64.4205 319.457 72.9548 313.414 72.9548C307.501 72.9548 303.428 63.7323 307.501 59.4651C309.735 57.125 315.122 57.4003 318.012 60.1533Z" fill="black"/>
<path d="M197.791 58.6394C195.688 59.8782 194.243 61.1171 194.637 61.53C195.031 61.8053 197.528 60.8418 200.418 59.3276C203.178 57.8135 204.491 56.5746 203.44 56.5746C202.389 56.5746 199.761 57.5382 197.791 58.6394Z" fill="black"/>
<path d="M244.171 61.8053C244.171 62.4935 246.273 64.283 248.901 65.9348C253.894 69.1008 255.208 69.5137 254.157 67.5866C252.974 65.6595 244.171 60.5664 244.171 61.8053Z" fill="black"/>
<path d="M182.812 67.8618C180.447 69.5136 178.477 71.3031 178.477 71.8537C178.477 73.0925 187.411 67.7242 188.462 65.9347C189.645 63.8699 187.28 64.6959 182.812 67.8618Z" fill="black"/>
<path d="M262.566 75.0198C266.639 78.1857 269.135 79.287 269.135 77.9104C269.135 77.0845 260.464 71.5785 259.15 71.5785C258.624 71.5785 260.069 73.0927 262.566 75.0198Z" fill="black"/>
<path d="M7.2759 74.7445C6.22479 77.6351 8.32702 80.1128 11.0862 79.5622C14.6337 78.874 14.3709 73.7809 10.8234 73.2303C9.24675 72.955 7.67007 73.6433 7.2759 74.7445Z" fill="black"/>
<path d="M17.5242 75.7082C16.9987 76.5341 18.1812 77.0847 20.0206 77.0847C21.8601 77.0847 23.4367 76.3965 23.4367 75.7082C23.4367 74.8823 22.2542 74.3317 20.9403 74.3317C19.4951 74.3317 17.9184 74.8823 17.5242 75.7082Z" fill="black"/>
<path d="M30.0062 75.7082C30.0062 76.3965 32.3712 77.0847 35.2618 77.0847C38.1524 77.0847 40.5174 76.3965 40.5174 75.7082C40.5174 74.8823 38.1524 74.3317 35.2618 74.3317C32.3712 74.3317 30.0062 74.8823 30.0062 75.7082Z" fill="black"/>
<path d="M168.36 77.6352C165.995 79.1494 164.024 81.0765 164.024 81.6271C164.024 82.7283 167.046 81.2141 171.25 78.0482C175.455 74.7445 172.958 74.3316 168.36 77.6352Z" fill="black"/>
<path d="M47.7439 76.3962C50.7659 77.4974 58.912 77.7727 58.912 76.8091C58.912 76.2585 56.1528 75.7079 52.7367 75.8456C49.1892 75.8456 47.0869 76.1209 47.7439 76.3962Z" fill="black"/>
<path d="M65.6128 79.0115C67.1895 80.5257 75.9926 83.6916 75.9926 82.5904C75.9926 82.0398 74.1531 80.801 71.9195 79.9751C67.715 78.4609 64.5617 77.9103 65.6128 79.0115Z" fill="black"/>
<path d="M274.391 82.4531C274.391 83.1414 276.493 84.9308 278.99 86.5826C284.902 90.1615 284.902 88.3721 278.99 84.2426C276.493 82.5908 274.391 81.7649 274.391 82.4531Z" fill="black"/>
<path d="M361.108 83.9667C358.611 85.4809 357.166 86.5821 358.086 86.7197C360.451 86.7197 366.363 83.6914 366.363 82.3149C366.363 80.9384 366.495 80.8008 361.108 83.9667Z" fill="black"/>
<path d="M85.5841 88.2339C88.4747 89.748 90.9711 90.7116 91.3652 90.2986C92.1536 89.4727 84.533 85.3432 82.2994 85.3432C81.3796 85.4809 82.8249 86.7197 85.5841 88.2339Z" fill="black"/>
<path d="M152.461 88.2338C150.096 89.8856 148.388 91.5375 148.783 91.8128C149.439 92.501 158.768 86.995 158.768 85.8938C158.768 84.6549 156.666 85.4808 152.461 88.2338Z" fill="black"/>
<path d="M119.483 90.7117C117.38 94.5659 121.322 97.7319 124.213 94.5659C125.921 92.7765 126.052 91.9506 124.607 90.2988C122.373 87.4081 121.059 87.5458 119.483 90.7117Z" fill="black"/>
<path d="M311.443 89.3354C308.946 90.8495 309.997 95.5297 312.888 96.0803C314.071 96.3556 315.516 95.5297 315.91 94.2908C317.092 91.4001 313.808 87.8212 311.443 89.3354Z" fill="black"/>
<path d="M344.159 91.6752C341.794 92.7764 340.086 94.0152 340.48 94.4282C341.268 95.2541 350.597 91.3999 350.597 90.2987C350.597 89.0598 349.152 89.4728 344.159 91.6752Z" fill="black"/>
<path d="M98.3287 93.74C98.3287 94.4283 98.5915 94.9789 98.8543 94.9789C99.1171 94.9789 101.482 95.9424 104.11 97.0436C106.738 98.1448 108.84 98.5578 108.84 98.0072C108.84 97.3189 106.475 95.8048 103.584 94.5659C100.694 93.4647 98.3287 93.0518 98.3287 93.74Z" fill="black"/>
<path d="M293.18 95.1164C296.07 96.6306 298.566 97.5941 298.961 97.3188C299.618 96.4929 291.603 92.2258 289.632 92.2258C288.844 92.3634 290.42 93.6023 293.18 95.1164Z" fill="black"/>
<path d="M136.038 97.1814C133.935 98.4202 132.49 99.6591 132.884 99.9344C133.541 100.623 143.001 96.6308 143.001 95.6672C143.001 94.4284 139.717 95.1166 136.038 97.1814Z" fill="black"/>
<path d="M327.341 98.0075C324.976 98.8334 323.005 99.9346 323.005 100.485C323.005 101.724 332.859 98.971 334.304 97.3192C335.618 95.9427 332.465 96.3557 327.341 98.0075Z" fill="black"/>
<path d="M115.41 100.485C116.461 101.173 119.483 101.724 121.979 101.724L126.578 101.586L122.636 100.485C120.534 99.9342 117.512 99.3836 116.066 99.2459C113.964 99.1083 113.833 99.3836 115.41 100.485Z" fill="black"/>
<path d="M305.924 100.485C305.924 101.724 315.122 103.788 316.173 102.687C317.224 101.448 316.173 100.898 310.917 100.072C308.158 99.6589 305.924 99.7966 305.924 100.485Z" fill="black"/>
</svg>
